<svg width="24" height="27" viewBox="0 0 24 27" fill="none" xmlns="http://www.w3.org/2000/svg">
<path d="M10.2106 0.744877C12.9187 0.744877 15.2854 1.29383 17.3104 2.39174C19.3598 3.46526 20.9335 4.97793 22.0314 6.92977C23.1293 8.88162 23.6783 11.114 23.6783 13.627C23.6783 16.1156 23.1171 18.3358 21.9948 20.2877C20.8969 22.2395 19.3232 23.7766 17.2738 24.8989C15.2488 25.9968 12.8944 26.5458 10.2106 26.5458H0V6.92977L7.17302 6.96637V0.744873L10.2106 0.744877ZM9.66161 20.2145C11.7598 20.2145 13.4067 19.6411 14.6022 18.4944C15.7977 17.3477 16.3955 15.7253 16.3955 13.627C16.3955 11.5044 15.7977 9.86974 14.6022 8.72303C13.4067 7.55192 11.7598 6.96637 9.66161 6.96637H7.17302V20.2145H9.66161Z" fill="#15C7FF"/>
</svg>
