<svg width="116" height="39" viewBox="0 0 116 39" fill="none" xmlns="http://www.w3.org/2000/svg">
<ellipse cx="112.514" cy="26.5" rx="2.50748" ry="2.5" fill="#15C7FF"/>
<path d="M36.028 21.512C36.028 21.928 36.002 22.3613 35.95 22.812H25.888C25.9573 23.7133 26.2433 24.4067 26.746 24.892C27.266 25.36 27.8987 25.594 28.644 25.594C29.7533 25.594 30.5247 25.126 30.958 24.19H35.69C35.4473 25.1433 35.0053 26.0013 34.364 26.764C33.74 27.5267 32.9513 28.1247 31.998 28.558C31.0447 28.9913 29.9787 29.208 28.8 29.208C27.3787 29.208 26.1133 28.9047 25.004 28.298C23.8947 27.6913 23.028 26.8247 22.404 25.698C21.78 24.5713 21.468 23.254 21.468 21.746C21.468 20.238 21.7713 18.9207 22.378 17.794C23.002 16.6673 23.8687 15.8007 24.978 15.194C26.0873 14.5873 27.3613 14.284 28.8 14.284C30.204 14.284 31.452 14.5787 32.544 15.168C33.636 15.7573 34.4853 16.598 35.092 17.69C35.716 18.782 36.028 20.056 36.028 21.512ZM31.478 20.342C31.478 19.5793 31.218 18.9727 30.698 18.522C30.178 18.0713 29.528 17.846 28.748 17.846C28.0027 17.846 27.37 18.0627 26.85 18.496C26.3473 18.9293 26.0353 19.5447 25.914 20.342H31.478ZM44.8995 24.84L48.0455 14.492H52.7775L47.6295 29H42.1435L36.9955 14.492H41.7535L44.8995 24.84ZM68.3249 21.512C68.3249 21.928 68.2989 22.3613 68.2469 22.812H58.1849C58.2542 23.7133 58.5402 24.4067 59.0429 24.892C59.5629 25.36 60.1955 25.594 60.9409 25.594C62.0502 25.594 62.8215 25.126 63.2549 24.19H67.9869C67.7442 25.1433 67.3022 26.0013 66.6609 26.764C66.0369 27.5267 65.2482 28.1247 64.2949 28.558C63.3415 28.9913 62.2755 29.208 61.0969 29.208C59.6755 29.208 58.4102 28.9047 57.3009 28.298C56.1915 27.6913 55.3249 26.8247 54.7009 25.698C54.0769 24.5713 53.7649 23.254 53.7649 21.746C53.7649 20.238 54.0682 18.9207 54.6749 17.794C55.2989 16.6673 56.1655 15.8007 57.2749 15.194C58.3842 14.5873 59.6582 14.284 61.0969 14.284C62.5009 14.284 63.7489 14.5787 64.8409 15.168C65.9329 15.7573 66.7822 16.598 67.3889 17.69C68.0129 18.782 68.3249 20.056 68.3249 21.512ZM63.7749 20.342C63.7749 19.5793 63.5149 18.9727 62.9949 18.522C62.4749 18.0713 61.8249 17.846 61.0449 17.846C60.2995 17.846 59.6669 18.0627 59.1469 18.496C58.6442 18.9293 58.3322 19.5447 58.2109 20.342H63.7749ZM75.1163 16.91C75.6363 16.1127 76.2864 15.4887 77.0664 15.038C77.8464 14.57 78.713 14.336 79.6664 14.336V19.042H78.4444C77.335 19.042 76.503 19.2847 75.9484 19.77C75.3937 20.238 75.1163 21.07 75.1163 22.266V29H70.6703V14.492H75.1163V16.91ZM89.8774 25.23V29H87.6154C86.0034 29 84.7468 28.61 83.8454 27.83C82.9441 27.0327 82.4934 25.7413 82.4934 23.956V18.184H80.7254V14.492H82.4934V10.956H86.9394V14.492H89.8514V18.184H86.9394V24.008C86.9394 24.4413 87.0434 24.7533 87.2514 24.944C87.4594 25.1347 87.8061 25.23 88.2914 25.23H89.8774ZM101.272 14.336C102.936 14.336 104.271 14.8907 105.276 16C106.281 17.092 106.784 18.6 106.784 20.524V29H102.364V21.122C102.364 20.1513 102.113 19.3973 101.61 18.86C101.107 18.3227 100.431 18.054 99.5819 18.054C98.7326 18.054 98.0566 18.3227 97.5539 18.86C97.0513 19.3973 96.7999 20.1513 96.7999 21.122V29H92.3539V9.76H96.7999V16.442C97.2506 15.8007 97.8659 15.2893 98.6459 14.908C99.4259 14.5267 100.301 14.336 101.272 14.336Z" fill="#022F42"/>
<path d="M8.21771 9.95423C10.3973 9.95423 12.302 10.3798 13.9318 11.2308C15.5813 12.063 16.8478 13.2356 17.7314 14.7486C18.615 16.2616 19.0568 17.992 19.0568 19.94C19.0568 21.8691 18.6052 23.5902 17.7019 25.1032C16.8183 26.6162 15.5518 27.8077 13.9024 28.6776C12.2726 29.5287 10.3777 29.9542 8.21771 29.9542H0V14.7486L5.77301 14.7769V9.95422L8.21771 9.95423ZM7.7759 25.0464C9.4646 25.0464 10.79 24.602 11.7522 23.7131C12.7144 22.8242 13.1955 21.5665 13.1955 19.94C13.1955 18.2947 12.7144 17.0275 11.7522 16.1386C10.79 15.2308 9.4646 14.7769 7.7759 14.7769H5.77301V25.0464H7.7759Z" fill="#15C7FF"/>
</svg>
